# xmcd CD database file
#
# Track frame offsets:
#	150
#	22545
#	40387
#	61737
#
# Disc length: 1087 seconds
#
# Revision: 0
# Processed by: cddbd v1.5PL3 Copyright (c) Steve Scherf et al.
# Submitted via: CDex 1.50beta10
#
DISCID=22043d04
DTITLE=Sparks Go Go - 八月の夢
DYEAR=1998
DGENRE=Rock
TTITLE0=八月の夢
TTITLE1=気分でいこう
TTITLE2=八月の夢(DUB)
TTITLE3=月旅行
EXTD=YEAR: 1998/03/01
EXTT0=
EXTT1=
EXTT2=
EXTT3=
PLAYORDER=
